<svg xmlns="http://www.w3.org/2000/svg" viewBox="0 0 320 100" fill="none">
  <!-- Massage hands line art -->
  <g stroke="currentColor" stroke-width="1.8" stroke-linecap="round" stroke-linejoin="round" fill="none">
    <!-- Person lying down - body outline -->
    <path d="M80,68 Q90,52 110,50 Q125,48 140,50 Q158,52 170,48 Q182,44 192,46" />
    <!-- Head -->
    <ellipse cx="195" cy="44" rx="10" ry="9" />
    <!-- Hair flowing -->
    <path d="M200,36 Q208,32 212,38" />
    <path d="M198,35 Q204,28 210,34" />
    <!-- Massage hand 1 - pressing on back -->
    <path d="M120,50 Q118,38 125,32 Q130,28 134,32 Q138,36 135,42" />
    <path d="M125,32 Q128,26 133,28" />
    <path d="M134,32 Q138,28 140,32" />
    <!-- Massage hand 2 -->
    <path d="M142,48 Q144,36 150,32 Q154,28 157,33 Q159,38 155,44" />
    <path d="M150,32 Q153,26 157,29" />
    <!-- Arm lines -->
    <path d="M120,50 Q112,40 108,32 Q106,26 110,22" />
    <path d="M155,44 Q162,36 168,30 Q172,26 176,28" />
    <!-- Decorative flowing lines (steam/energy) -->
    <path d="M130,24 Q132,16 128,10" stroke-width="1.2" opacity="0.6" />
    <path d="M145,22 Q148,14 145,8" stroke-width="1.2" opacity="0.6" />
    <path d="M138,20 Q140,12 136,4" stroke-width="1.2" opacity="0.5" />
  </g>
</svg>
